<svg xmlns="http://www.w3.org/2000/svg" width="30.333" height="40.444" viewBox="0 0 30.333 40.444">
  <g id="Group_185" data-name="Group 185" transform="translate(-12.5)">
    <g id="Group_184" data-name="Group 184" transform="translate(12.5)">
      <g id="Group_183" data-name="Group 183">
        <path id="Path_164" data-name="Path 164" d="M42.586,8.673,34.16.247a.842.842,0,0,0-.6-.247H15.87A3.374,3.374,0,0,0,12.5,3.37v33.7a3.374,3.374,0,0,0,3.37,3.37H39.463a3.374,3.374,0,0,0,3.37-3.37V9.269A.842.842,0,0,0,42.586,8.673Zm-8.179-5.8,5.549,5.549H36.092a1.686,1.686,0,0,1-1.685-1.685Zm6.74,34.2a1.687,1.687,0,0,1-1.685,1.685H15.87a1.687,1.687,0,0,1-1.685-1.685V3.37A1.687,1.687,0,0,1,15.87,1.685H32.722V6.741a3.374,3.374,0,0,0,3.37,3.37h5.056Z" transform="translate(-12.5)" fill="#34347f"/>
        <path id="Path_165" data-name="Path 165" d="M44.38,58.333H25.842a.843.843,0,0,0,0,1.685H44.38a.843.843,0,0,0,0-1.685Z" transform="translate(-19.944 -34.741)" fill="#34347f"/>
        <path id="Path_166" data-name="Path 166" d="M44.38,45.833H25.842a.843.843,0,0,0,0,1.685H44.38a.843.843,0,0,0,0-1.685Z" transform="translate(-19.944 -27.296)" fill="#34347f"/>
        <path id="Path_167" data-name="Path 167" d="M44.38,70.833H25.842a.843.843,0,0,0,0,1.685H44.38a.843.843,0,0,0,0-1.685Z" transform="translate(-19.944 -42.185)" fill="#34347f"/>
        <path id="Path_168" data-name="Path 168" d="M35.953,83.333H25.842a.843.843,0,0,0,0,1.685H35.953a.843.843,0,1,0,0-1.685Z" transform="translate(-19.944 -49.63)" fill="#34347f"/>
        <path id="Path_169" data-name="Path 169" d="M45.833,34.176a.842.842,0,0,0,.843.842H56.787a.843.843,0,0,0,0-1.685H46.676A.842.842,0,0,0,45.833,34.176Z" transform="translate(-32.352 -19.852)" fill="#34347f"/>
        <path id="Path_170" data-name="Path 170" d="M27.528,22.166H25.842a.843.843,0,0,0,0,1.685h.843a.843.843,0,1,0,1.685,0V23.7a2.522,2.522,0,0,0-.843-4.9.843.843,0,0,1,0-1.685h1.685a.843.843,0,0,0,0-1.685H28.37a.843.843,0,0,0-1.685,0v.155a2.522,2.522,0,0,0,.843,4.9.842.842,0,0,1,0,1.685Z" transform="translate(-19.944 -8.685)" fill="#34347f"/>
      </g>
    </g>
  </g>
</svg>
