<svg xmlns="http://www.w3.org/2000/svg" width="49.444" height="31.64" viewBox="0 0 49.444 31.64">
  <g id="Group_182" data-name="Group 182" transform="translate(777 -159.812)">
    <g id="Group_181" data-name="Group 181" transform="translate(-777 159.812)">
      <path id="Path_151" data-name="Path 151" d="M-734.83,159.812h-6.921a.726.726,0,0,0-.726.726.726.726,0,0,0,.726.726h6.921a.823.823,0,0,1,.823.822v27.092a.823.823,0,0,1-.823.822h-44.9a.823.823,0,0,1-.823-.822V162.086a.823.823,0,0,1,.823-.822h40.71a.726.726,0,0,0,.726-.726.726.726,0,0,0-.726-.726h-40.71A2.276,2.276,0,0,0-782,162.086v27.092a2.276,2.276,0,0,0,2.274,2.274h44.9a2.276,2.276,0,0,0,2.274-2.274V162.086A2.276,2.276,0,0,0-734.83,159.812Z" transform="translate(782 -159.812)" fill="#34347f"/>
      <path id="Path_152" data-name="Path 152" d="M-718.521,216.648a.726.726,0,0,0-.726-.726H-733.18a.726.726,0,0,0-.726.726v15.481a.726.726,0,0,0,.726.726h13.933a.726.726,0,0,0,.726-.726ZM-729.358,231.4v-2.371a.823.823,0,0,1,.823-.822h4.644a.823.823,0,0,1,.823.822V231.4Zm9.386,0h-1.645v-2.371a2.276,2.276,0,0,0-2.274-2.274h-4.644a2.276,2.276,0,0,0-2.274,2.274V231.4h-1.645v-14.03h12.482Z" transform="translate(738.55 -210.503)" fill="#34347f"/>
      <path id="Path_153" data-name="Path 153" d="M-690.006,255.628a3.826,3.826,0,0,0,3.822-3.822,3.826,3.826,0,0,0-3.822-3.822,3.826,3.826,0,0,0-3.822,3.822A3.826,3.826,0,0,0-690.006,255.628Zm0-6.193a2.373,2.373,0,0,1,2.37,2.371,2.373,2.373,0,0,1-2.37,2.371,2.373,2.373,0,0,1-2.371-2.371A2.373,2.373,0,0,1-690.006,249.435Z" transform="translate(702.343 -239.469)" fill="#34347f"/>
      <path id="Path_154" data-name="Path 154" d="M-540.8,215.922a.726.726,0,0,0-.726.726.726.726,0,0,0,.726.726h13.159a.726.726,0,0,0,.726-.726.726.726,0,0,0-.726-.726Z" transform="translate(564.752 -210.503)" fill="#34347f"/>
      <path id="Path_155" data-name="Path 155" d="M-540.8,257.451h6.193a.726.726,0,0,0,.726-.726.726.726,0,0,0-.726-.726H-540.8a.726.726,0,0,0-.726.726A.726.726,0,0,0-540.8,257.451Z" transform="translate(564.752 -246.711)" fill="#34347f"/>
      <path id="Path_156" data-name="Path 156" d="M-433.054,256.726a.726.726,0,0,0-.726-.726h-10.837a.726.726,0,0,0-.726.726.726.726,0,0,0,.726.726h10.837A.726.726,0,0,0-433.054,256.726Z" transform="translate(477.853 -246.711)" fill="#34347f"/>
      <path id="Path_157" data-name="Path 157" d="M-523.775,296.078H-540.8a.726.726,0,0,0-.726.726.726.726,0,0,0,.726.726h17.03a.726.726,0,0,0,.726-.726A.726.726,0,0,0-523.775,296.078Z" transform="translate(564.752 -282.919)" fill="#34347f"/>
      <path id="Path_158" data-name="Path 158" d="M-530.79,336.883a.726.726,0,0,0-.726-.726H-540.8a.726.726,0,0,0-.726.726.726.726,0,0,0,.726.726h9.289A.726.726,0,0,0-530.79,336.883Z" transform="translate(564.752 -319.127)" fill="#34347f"/>
      <path id="Path_159" data-name="Path 159" d="M-407.91,336.157h-4.644a.726.726,0,0,0-.726.726.726.726,0,0,0,.726.726h4.644a.726.726,0,0,0,.726-.726A.726.726,0,0,0-407.91,336.157Z" transform="translate(448.887 -319.127)" fill="#34347f"/>
      <path id="Path_160" data-name="Path 160" d="M-540.8,376.235a.726.726,0,0,0-.726.726.726.726,0,0,0,.726.726h5.419a.726.726,0,0,0,.726-.726.726.726,0,0,0-.726-.726Z" transform="translate(564.752 -355.335)" fill="#34347f"/>
      <path id="Path_161" data-name="Path 161" d="M-452.632,377.686h8.515a.726.726,0,0,0,.726-.726.726.726,0,0,0-.726-.726h-8.515a.726.726,0,0,0-.726.726A.726.726,0,0,0-452.632,377.686Z" transform="translate(485.095 -355.335)" fill="#34347f"/>
      <path id="Path_162" data-name="Path 162" d="M-733.18,416.313a.726.726,0,0,0-.726.726.726.726,0,0,0,.726.726h3.87a.726.726,0,0,0,.726-.726.726.726,0,0,0-.726-.726Z" transform="translate(738.55 -391.543)" fill="#34347f"/>
      <path id="Path_163" data-name="Path 163" d="M-654.073,416.313h-6.966a.726.726,0,0,0-.726.726.726.726,0,0,0,.726.726h6.966a.726.726,0,0,0,.726-.726A.726.726,0,0,0-654.073,416.313Z" transform="translate(673.376 -391.543)" fill="#34347f"/>
    </g>
  </g>
</svg>
