<svg xmlns="http://www.w3.org/2000/svg" width="60.709" height="17.057" viewBox="0 0 60.709 17.057">
  <g id="Group_191" data-name="Group 191" transform="translate(-69.246 -10.73)">
    <path id="Path_23" data-name="Path 23" d="M406,288.627v11.946h-1.544v-2.362a4.921,4.921,0,0,1-1.918,1.841,5.636,5.636,0,0,1-2.692.636,6.068,6.068,0,0,1-3.044-.772,5.525,5.525,0,0,1-2.135-2.158,6.845,6.845,0,0,1,0-6.314A5.451,5.451,0,0,1,396.8,289.3a6.144,6.144,0,0,1,3.044-.761,5.645,5.645,0,0,1,2.624.6,4.967,4.967,0,0,1,1.918,1.76v-2.271Zm-3.759,10.05a4.112,4.112,0,0,0,1.59-1.647,5.387,5.387,0,0,0,0-4.86,4.117,4.117,0,0,0-1.59-1.647,4.464,4.464,0,0,0-2.26-.579,4.511,4.511,0,0,0-2.284.579,4.117,4.117,0,0,0-1.589,1.647,5.4,5.4,0,0,0,0,4.86,4.111,4.111,0,0,0,1.589,1.647,4.51,4.51,0,0,0,2.284.578,4.463,4.463,0,0,0,2.26-.578" transform="translate(-324.651 -272.945)" fill="#fff"/>
    <path id="Path_24" data-name="Path 24" d="M429.75,294.95a3.484,3.484,0,0,1-.875-2.521V278.893h1.612v13.4a2.356,2.356,0,0,0,.5,1.625,1.911,1.911,0,0,0,1.5.556,2.639,2.639,0,0,0,1.09-.2l.114,1.341a4.34,4.34,0,0,1-1.454.25,3.288,3.288,0,0,1-2.486-.909" transform="translate(-342.163 -268.117)" fill="#fff"/>
    <path id="Path_25" data-name="Path 25" d="M454.76,278.893v16.852h-2.725v-1.567a4.4,4.4,0,0,1-1.738,1.3,5.871,5.871,0,0,1-2.282.431,6.4,6.4,0,0,1-3.146-.772,5.549,5.549,0,0,1-2.192-2.193,7.058,7.058,0,0,1,0-6.506,5.577,5.577,0,0,1,2.192-2.181,6.393,6.393,0,0,1,3.146-.772,5.771,5.771,0,0,1,2.2.409,4.415,4.415,0,0,1,1.7,1.226v-6.223Zm-4.566,14.115a3.364,3.364,0,0,0,1.3-1.328,4.428,4.428,0,0,0,0-4,3.361,3.361,0,0,0-1.3-1.328,3.864,3.864,0,0,0-3.679,0,3.361,3.361,0,0,0-1.3,1.328,4.428,4.428,0,0,0,0,4,3.364,3.364,0,0,0,1.3,1.328,3.86,3.86,0,0,0,3.679,0" transform="translate(-348.676 -268.117)" fill="#fff"/>
    <path id="Path_26" data-name="Path 26" d="M478.97,278.8h3.338l-3.952,3.111H475.9Zm-2.59,4.77h2.839V295.7h-2.839Z" transform="translate(-365.709 -268.072)" fill="#fff"/>
    <path id="Path_27" data-name="Path 27" d="M502.586,288.217v12.128h-2.7v-1.567a4.382,4.382,0,0,1-1.738,1.3,5.863,5.863,0,0,1-2.282.431,6.449,6.449,0,0,1-3.169-.772,5.49,5.49,0,0,1-2.18-2.181,6.613,6.613,0,0,1-.784-3.271,6.545,6.545,0,0,1,.784-3.259,5.516,5.516,0,0,1,2.18-2.169,6.438,6.438,0,0,1,3.169-.772,5.615,5.615,0,0,1,2.169.409,4.774,4.774,0,0,1,1.715,1.2v-1.476Zm-3.815,8.812a4.205,4.205,0,0,0,0-5.5,3.472,3.472,0,0,0-2.59-1.045,3.432,3.432,0,0,0-2.578,1.045,4.243,4.243,0,0,0,0,5.5,3.431,3.431,0,0,0,2.578,1.046,3.47,3.47,0,0,0,2.59-1.046" transform="translate(-372.631 -272.717)" fill="#fff"/>
  </g>
</svg>
