<svg xmlns="http://www.w3.org/2000/svg" width="194" height="60.12" viewBox="0 0 194 60.12">
  <g id="Group_55" data-name="Group 55" transform="translate(0 0)">
    <path id="Path_22" data-name="Path 22" d="M380.27,268.345a48.9,48.9,0,0,0-48.627,44.486,152.908,152.908,0,0,1,15.885-18.308,1.252,1.252,0,1,1,1.79,1.751c-.976.992-1.964,2.021-2.96,3.064q-.854.893-1.67,1.767c-.1.107-.2.216-.3.323-8,8.563-13.712,16.017-17.863,25.272a1.253,1.253,0,0,0,.627,1.655,1.259,1.259,0,0,0,1.66-.629,68.4,68.4,0,0,1,5.122-9.321A48.818,48.818,0,0,0,375.7,292.737a1.251,1.251,0,0,0-1.1-1.846h-4.64l8.32-4.754a1.258,1.258,0,0,0,.563-.679,48.676,48.676,0,0,0,2.685-15.858,1.255,1.255,0,0,0-1.253-1.255" transform="translate(-326.414 -268.345)" fill="#fff"/>
    <path id="Path_23" data-name="Path 23" d="M418.772,288.723v24.549H415.6v-4.855a10.112,10.112,0,0,1-3.942,3.782,11.581,11.581,0,0,1-5.532,1.306,12.468,12.468,0,0,1-6.255-1.586,11.354,11.354,0,0,1-4.387-4.434,14.067,14.067,0,0,1,0-12.975,11.2,11.2,0,0,1,4.387-4.411,12.624,12.624,0,0,1,6.255-1.563,11.6,11.6,0,0,1,5.391,1.238,10.207,10.207,0,0,1,3.942,3.616v-4.667Zm-7.724,20.653a8.45,8.45,0,0,0,3.267-3.385,11.071,11.071,0,0,0,0-9.987,8.46,8.46,0,0,0-3.267-3.384,9.172,9.172,0,0,0-4.643-1.189,9.268,9.268,0,0,0-4.692,1.189A8.459,8.459,0,0,0,398.447,296a11.087,11.087,0,0,0,0,9.987,8.449,8.449,0,0,0,3.266,3.385,9.268,9.268,0,0,0,4.692,1.188,9.172,9.172,0,0,0,4.643-1.188" transform="translate(-324.651 -267.817)" fill="#fff"/>
    <path id="Path_24" data-name="Path 24" d="M430.673,311.89a7.159,7.159,0,0,1-1.8-5.181V278.893h3.313v27.536a4.842,4.842,0,0,0,1.028,3.339,3.928,3.928,0,0,0,3.079,1.142,5.422,5.422,0,0,0,2.239-.421l.235,2.755a8.918,8.918,0,0,1-2.988.513,6.756,6.756,0,0,1-5.109-1.867" transform="translate(-323.737 -268.069)" fill="#fff"/>
    <path id="Path_25" data-name="Path 25" d="M468.346,278.893v34.63h-5.6V310.3a9.045,9.045,0,0,1-3.572,2.662,12.063,12.063,0,0,1-4.689.886,13.158,13.158,0,0,1-6.466-1.585,11.4,11.4,0,0,1-4.5-4.506,14.5,14.5,0,0,1,0-13.37,11.461,11.461,0,0,1,4.5-4.481,13.137,13.137,0,0,1,6.466-1.587,11.859,11.859,0,0,1,4.527.841,9.072,9.072,0,0,1,3.5,2.52V278.893ZM458.964,307.9a6.913,6.913,0,0,0,2.662-2.73,9.1,9.1,0,0,0,0-8.215,6.906,6.906,0,0,0-2.662-2.729,7.94,7.94,0,0,0-7.559,0,6.905,6.905,0,0,0-2.662,2.729,9.1,9.1,0,0,0,0,8.215,6.912,6.912,0,0,0,2.662,2.73,7.933,7.933,0,0,0,7.559,0" transform="translate(-323.398 -268.069)" fill="#fff"/>
    <path id="Path_26" data-name="Path 26" d="M482.205,278.8h6.86l-8.121,6.393H475.9Zm-5.321,9.8h5.834v24.923h-5.834Z" transform="translate(-322.509 -268.072)" fill="#fff"/>
    <path id="Path_27" data-name="Path 27" d="M516.148,288.361v24.923h-5.553v-3.221a9.005,9.005,0,0,1-3.572,2.662,12.047,12.047,0,0,1-4.689.886,13.252,13.252,0,0,1-6.512-1.585,11.283,11.283,0,0,1-4.479-4.481,13.59,13.59,0,0,1-1.612-6.722,13.449,13.449,0,0,1,1.612-6.7,11.336,11.336,0,0,1,4.479-4.458,13.231,13.231,0,0,1,6.512-1.586,11.54,11.54,0,0,1,4.456.84,9.81,9.81,0,0,1,3.524,2.473v-3.033Zm-7.841,18.108a8.642,8.642,0,0,0,0-11.295,7.134,7.134,0,0,0-5.321-2.147,7.054,7.054,0,0,0-5.3,2.147,8.719,8.719,0,0,0,0,11.295,7.051,7.051,0,0,0,5.3,2.149,7.132,7.132,0,0,0,5.321-2.149" transform="translate(-322.148 -267.829)" fill="#fff"/>
  </g>
</svg>
