<?xml version="1.0" encoding="utf-8"?>
<!-- Generator: Adobe Illustrator 19.1.0, SVG Export Plug-In . SVG Version: 6.00 Build 0)  -->
<svg version="1.1" id="Layer_1" xmlns="http://www.w3.org/2000/svg" xmlns:xlink="http://www.w3.org/1999/xlink" x="0px" y="0px"
	 viewBox="0 0 510.2 194" style="enable-background:new 0 0 510.2 194;" xml:space="preserve">
<style type="text/css">
	.st0{fill:#403B8A;}
</style>
<g>
	<g>
		<path class="st0" d="M161,31.4c-55.5,0-101.2,42.7-106.1,97c9.2-13,20.5-25.5,34.6-39.9c1-1.1,2.8-1.1,3.9,0
			c1.1,1.1,1.1,2.8,0,3.9c-2.1,2.2-4.3,4.4-6.5,6.7c-1.2,1.3-2.5,2.6-3.6,3.9c-0.2,0.2-0.4,0.5-0.7,0.7
			c-17.4,18.7-29.9,34.9-39,55.1c-0.6,1.4,0,3,1.4,3.6c0.4,0.2,0.7,0.2,1.1,0.2c1,0,2-0.6,2.5-1.6c3.2-7.2,7-13.8,11.2-20.3
			c38.2-1,72.9-22.2,91.1-56c0.5-0.8,0.4-1.9-0.1-2.7c-0.5-0.8-1.4-1.3-2.3-1.3h-10.1l18.1-10.4c0.6-0.3,1-0.9,1.2-1.5
			c3.9-11.3,5.9-22.9,5.9-34.6C163.8,32.7,162.5,31.4,161,31.4"/>
		<path class="st0" d="M248.8,77v53.5h-6.9V120c-2.2,3.6-5,6.3-8.6,8.2c-3.6,1.9-7.6,2.8-12.1,2.8c-5,0-9.6-1.2-13.6-3.5
			c-4.1-2.3-7.3-5.5-9.6-9.7c-2.3-4.1-3.5-8.9-3.5-14.2c0-5.3,1.2-10,3.5-14.1c2.3-4.1,5.5-7.3,9.6-9.6c4.1-2.3,8.6-3.4,13.6-3.4
			c4.3,0,8.3,0.9,11.8,2.7c3.5,1.8,6.4,4.4,8.6,7.9V77H248.8z M232,122.1c3-1.7,5.4-4.2,7.1-7.4c1.7-3.2,2.6-6.8,2.6-10.9
			c0-4.1-0.9-7.7-2.6-10.9c-1.7-3.2-4.1-5.6-7.1-7.4c-3-1.7-6.4-2.6-10.1-2.6c-3.8,0-7.2,0.9-10.2,2.6c-3,1.7-5.4,4.2-7.1,7.4
			c-1.7,3.2-2.6,6.8-2.6,10.9c0,4.1,0.9,7.7,2.6,10.9c1.7,3.2,4.1,5.7,7.1,7.4c3,1.7,6.4,2.6,10.2,2.6
			C225.6,124.7,229,123.8,232,122.1"/>
		<path class="st0" d="M276.8,127c-2.6-2.7-3.9-6.5-3.9-11.3V55h7.2v60.1c0,3.2,0.7,5.6,2.2,7.3c1.5,1.7,3.7,2.5,6.7,2.5
			c1.9,0,3.5-0.3,4.9-0.9l0.5,6c-2.1,0.7-4.3,1.1-6.5,1.1C283.1,131.1,279.4,129.7,276.8,127"/>
		<path class="st0" d="M359.7,55v75.5h-12.2v-7c-2.1,2.6-4.7,4.5-7.8,5.8c-3.1,1.3-6.5,1.9-10.2,1.9c-5.2,0-9.9-1.2-14.1-3.5
			c-4.2-2.3-7.4-5.6-9.8-9.8c-2.4-4.2-3.6-9.1-3.6-14.6c0-5.5,1.2-10.3,3.6-14.6c2.4-4.2,5.7-7.5,9.8-9.8c4.2-2.3,8.9-3.5,14.1-3.5
			c3.6,0,6.9,0.6,9.9,1.8c3,1.2,5.5,3.1,7.6,5.5V55H359.7z M339.2,118.3c2.4-1.4,4.4-3.4,5.8-6c1.4-2.6,2.1-5.6,2.1-9
			c0-3.4-0.7-6.4-2.1-9c-1.4-2.6-3.4-4.6-5.8-6c-2.4-1.4-5.2-2.1-8.2-2.1c-3.1,0-5.8,0.7-8.2,2.1c-2.4,1.4-4.4,3.4-5.8,6
			c-1.4,2.6-2.1,5.6-2.1,9c0,3.4,0.7,6.4,2.1,9c1.4,2.6,3.4,4.6,5.8,6c2.4,1.4,5.2,2.1,8.2,2.1C334,120.4,336.8,119.7,339.2,118.3"
			/>
		<path class="st0" d="M386.6,58.3h15L393,68.8h-12.7L386.6,58.3z M380.3,76.2H393v54.4h-12.7V76.2z"/>
		<path class="st0" d="M466.7,76.2v54.4h-12.1v-7c-2.1,2.6-4.7,4.5-7.8,5.8c-3.1,1.3-6.5,1.9-10.2,1.9c-5.3,0-10-1.2-14.2-3.5
			c-4.2-2.3-7.4-5.6-9.8-9.8c-2.3-4.2-3.5-9.1-3.5-14.7c0-5.6,1.2-10.4,3.5-14.6c2.3-4.2,5.6-7.4,9.8-9.7c4.2-2.3,8.9-3.5,14.2-3.5
			c3.5,0,6.8,0.6,9.7,1.8c3,1.2,5.5,3,7.7,5.4v-6.6H466.7z M449.6,115.7c3.1-3.1,4.6-7.2,4.6-12.3c0-5.1-1.5-9.2-4.6-12.3
			c-3.1-3.1-6.9-4.7-11.6-4.7c-4.7,0-8.5,1.6-11.6,4.7c-3,3.1-4.5,7.2-4.5,12.3c0,5.1,1.5,9.2,4.5,12.3c3,3.1,6.9,4.7,11.6,4.7
			C442.6,120.4,446.5,118.8,449.6,115.7"/>
	</g>
	<g>
		<path class="st0" d="M161,31.4c-55.5,0-101.2,42.7-106.1,97c9.2-13,20.5-25.5,34.6-39.9c1-1.1,2.8-1.1,3.9,0
			c1.1,1.1,1.1,2.8,0,3.9c-2.1,2.2-4.3,4.4-6.5,6.7c-1.2,1.3-2.5,2.6-3.6,3.9c-0.2,0.2-0.4,0.5-0.7,0.7
			c-17.4,18.7-29.9,34.9-39,55.1c-0.6,1.4,0,3,1.4,3.6c0.4,0.2,0.7,0.2,1.1,0.2c1,0,2-0.6,2.5-1.6c3.2-7.2,7-13.8,11.2-20.3
			c38.2-1,72.9-22.2,91.1-56c0.5-0.8,0.4-1.9-0.1-2.7c-0.5-0.8-1.4-1.3-2.3-1.3h-10.1l18.1-10.4c0.6-0.3,1-0.9,1.2-1.5
			c3.9-11.3,5.9-22.9,5.9-34.6C163.8,32.7,162.5,31.4,161,31.4"/>
		<path class="st0" d="M248.8,77v53.5h-6.9V120c-2.2,3.6-5,6.3-8.6,8.2c-3.6,1.9-7.6,2.8-12.1,2.8c-5,0-9.6-1.2-13.6-3.5
			c-4.1-2.3-7.3-5.5-9.6-9.7c-2.3-4.1-3.5-8.9-3.5-14.2c0-5.3,1.2-10,3.5-14.1c2.3-4.1,5.5-7.3,9.6-9.6c4.1-2.3,8.6-3.4,13.6-3.4
			c4.3,0,8.3,0.9,11.8,2.7c3.5,1.8,6.4,4.4,8.6,7.9V77H248.8z M232,122.1c3-1.7,5.4-4.2,7.1-7.4c1.7-3.2,2.6-6.8,2.6-10.9
			c0-4.1-0.9-7.7-2.6-10.9c-1.7-3.2-4.1-5.6-7.1-7.4c-3-1.7-6.4-2.6-10.1-2.6c-3.8,0-7.2,0.9-10.2,2.6c-3,1.7-5.4,4.2-7.1,7.4
			c-1.7,3.2-2.6,6.8-2.6,10.9c0,4.1,0.9,7.7,2.6,10.9c1.7,3.2,4.1,5.7,7.1,7.4c3,1.7,6.4,2.6,10.2,2.6
			C225.6,124.7,229,123.8,232,122.1"/>
		<path class="st0" d="M276.8,127c-2.6-2.7-3.9-6.5-3.9-11.3V55h7.2v60.1c0,3.2,0.7,5.6,2.2,7.3c1.5,1.7,3.7,2.5,6.7,2.5
			c1.9,0,3.5-0.3,4.9-0.9l0.5,6c-2.1,0.7-4.3,1.1-6.5,1.1C283.1,131.1,279.4,129.7,276.8,127"/>
		<path class="st0" d="M359.7,55v75.5h-12.2v-7c-2.1,2.6-4.7,4.5-7.8,5.8c-3.1,1.3-6.5,1.9-10.2,1.9c-5.2,0-9.9-1.2-14.1-3.5
			c-4.2-2.3-7.4-5.6-9.8-9.8c-2.4-4.2-3.6-9.1-3.6-14.6c0-5.5,1.2-10.3,3.6-14.6c2.4-4.2,5.7-7.5,9.8-9.8c4.2-2.3,8.9-3.5,14.1-3.5
			c3.6,0,6.9,0.6,9.9,1.8c3,1.2,5.5,3.1,7.6,5.5V55H359.7z M339.2,118.3c2.4-1.4,4.4-3.4,5.8-6c1.4-2.6,2.1-5.6,2.1-9
			c0-3.4-0.7-6.4-2.1-9c-1.4-2.6-3.4-4.6-5.8-6c-2.4-1.4-5.2-2.1-8.2-2.1c-3.1,0-5.8,0.7-8.2,2.1c-2.4,1.4-4.4,3.4-5.8,6
			c-1.4,2.6-2.1,5.6-2.1,9c0,3.4,0.7,6.4,2.1,9c1.4,2.6,3.4,4.6,5.8,6c2.4,1.4,5.2,2.1,8.2,2.1C334,120.4,336.8,119.7,339.2,118.3"
			/>
		<path class="st0" d="M386.6,58.3h15L393,68.8h-12.7L386.6,58.3z M380.3,76.2H393v54.4h-12.7V76.2z"/>
		<path class="st0" d="M466.7,76.2v54.4h-12.1v-7c-2.1,2.6-4.7,4.5-7.8,5.8c-3.1,1.3-6.5,1.9-10.2,1.9c-5.3,0-10-1.2-14.2-3.5
			c-4.2-2.3-7.4-5.6-9.8-9.8c-2.3-4.2-3.5-9.1-3.5-14.7c0-5.6,1.2-10.4,3.5-14.6c2.3-4.2,5.6-7.4,9.8-9.7c4.2-2.3,8.9-3.5,14.2-3.5
			c3.5,0,6.8,0.6,9.7,1.8c3,1.2,5.5,3,7.7,5.4v-6.6H466.7z M449.6,115.7c3.1-3.1,4.6-7.2,4.6-12.3c0-5.1-1.5-9.2-4.6-12.3
			c-3.1-3.1-6.9-4.7-11.6-4.7c-4.7,0-8.5,1.6-11.6,4.7c-3,3.1-4.5,7.2-4.5,12.3c0,5.1,1.5,9.2,4.5,12.3c3,3.1,6.9,4.7,11.6,4.7
			C442.6,120.4,446.5,118.8,449.6,115.7"/>
	</g>
</g>
</svg>
