<svg xmlns="http://www.w3.org/2000/svg" width="351.916" height="69.298" viewBox="0 0 351.916 69.298">
  <g id="Group_218" data-name="Group 218" transform="translate(-784 -264.504)">
    <g id="Group_222" data-name="Group 222" transform="translate(2254.563 824.916)">
      <g id="Group_217" data-name="Group 217" transform="translate(-1287.966 -543.508)">
        <path id="Path_174" data-name="Path 174" d="M-159.791-370.454h2.5a.832.832,0,0,0,.826-.729l.316-2.529a14.856,14.856,0,0,1,1.6-5.08l.587,5.868-.83,24.078a.832.832,0,0,0,.8.86h2.525a.832.832,0,0,0,.8-.62l3.356-12.754,3.356,12.754a.832.832,0,0,0,.8.62h2.5a.832.832,0,0,0,.832-.832c0-.01,0-.019,0-.029l-.83-24.078.587-5.868a14.858,14.858,0,0,1,1.6,5.08l.316,2.529a.832.832,0,0,0,.826.729h2.5a.832.832,0,0,0,.832-.832v-4.3a21.52,21.52,0,0,0-2.26-9.576,7.027,7.027,0,0,0-4.09-3.547L-144.227-390a3.307,3.307,0,0,0,.248-1.259v-4.161a.832.832,0,0,0-.371-.692l-2.014-1.342a2.748,2.748,0,0,0-3.811.762,2.749,2.749,0,0,0-.462,1.525v3.909a3.311,3.311,0,0,0,.248,1.259l-3.884,1.295a7.027,7.027,0,0,0-4.09,3.547,21.52,21.52,0,0,0-2.261,9.576v4.3A.832.832,0,0,0-159.791-370.454Zm.832-1.664v-1.664h1.138l-.208,1.664Zm16.453,22.469-4-15.191a.832.832,0,0,0-1.017-.593.832.832,0,0,0-.593.593l-4,15.191h-.994l.775-22.469h10.043l.775,22.469Zm5.919-22.469-.208-1.664h1.138v1.664Zm-12.385-20.8h3.329v1.664a1.664,1.664,0,0,1-1.664,1.664,1.664,1.664,0,0,1-1.664-1.664Zm.832,4.888v3.434l-2.636-3.515,1.463-.488A3.319,3.319,0,0,0-148.14-388.036Zm1.664,0a3.319,3.319,0,0,0,1.173-.568l1.463.488-2.636,3.515Zm-1.412-8.217a1.081,1.081,0,0,1,.6.182l1.643,1.1v.387h-3.329v-.58A1.085,1.085,0,0,1-147.888-396.253Zm-8.986,11.839a5.375,5.375,0,0,1,3.128-2.713l1.306-.435,4.467,5.956a.832.832,0,0,0,1.165.166.831.831,0,0,0,.166-.166l4.467-5.956,1.306.435a5.374,5.374,0,0,1,3.128,2.713,19.846,19.846,0,0,1,2.085,8.831v.135h-1.421a16.531,16.531,0,0,0-2.907-6.325.832.832,0,0,0-1.165-.166.832.832,0,0,0-.329.583l-.757,7.572H-152.38l-.757-7.572a.832.832,0,0,0-.911-.745.832.832,0,0,0-.583.329,16.532,16.532,0,0,0-2.907,6.325h-1.421v-.135A19.847,19.847,0,0,1-156.874-384.414Z" transform="translate(160.623 397.917)" fill="#39c6fb"/>
      </g>
      <g id="Group_218-2" data-name="Group 218" transform="translate(-1250.3 -543.508)">
        <path id="Path_175" data-name="Path 175" d="M225.838-385.158a7.027,7.027,0,0,0-4.09-3.547L217.864-390a3.31,3.31,0,0,0,.248-1.259v-4.161a.832.832,0,0,0-.371-.692l-2.014-1.342a2.748,2.748,0,0,0-3.811.762,2.748,2.748,0,0,0-.462,1.525v3.909A3.311,3.311,0,0,0,211.7-390l-3.884,1.295a7.027,7.027,0,0,0-4.09,3.547,21.519,21.519,0,0,0-2.261,9.576v4.3a.832.832,0,0,0,.832.832h2.5a.832.832,0,0,0,.826-.729l.316-2.529a14.856,14.856,0,0,1,1.6-5.08l.587,5.868-.83,24.078a.832.832,0,0,0,.8.86h2.526a.832.832,0,0,0,.8-.62l3.356-12.754,3.356,12.754a.832.832,0,0,0,.8.62h2.5a.832.832,0,0,0,.832-.832c0-.01,0-.019,0-.029l-.363-10.515c-.541.191-1.109-.178-1.676-.3l.345,10.011h-.994l-4-15.191a.832.832,0,0,0-1.017-.593.832.832,0,0,0-.593.593l-4,15.191h-.994l.775-22.469H219.8l.164,4.76.012,0a4.922,4.922,0,0,1,1.65-.073l-.189-5.491.587-5.868a14.856,14.856,0,0,1,1.6,5.08l.316,2.529a.832.832,0,0,0,.826.729h2.5a.832.832,0,0,0,.832-.832v-4.3A21.52,21.52,0,0,0,225.838-385.158Zm-7.587-2.958-2.636,3.515v-3.434a3.319,3.319,0,0,0,1.173-.568Zm-5.133-7.052a1.085,1.085,0,0,1,1.084-1.084,1.081,1.081,0,0,1,.6.182l1.643,1.1v.387h-3.329Zm0,2.245h3.329v1.664a1.664,1.664,0,0,1-1.664,1.664,1.664,1.664,0,0,1-1.664-1.664Zm-.341,4.32a3.319,3.319,0,0,0,1.173.568v3.434l-2.636-3.515Zm-8.716,16.485h-.93v-1.664h1.138Zm22.372,0h-.93l-.208-1.664h1.138Zm0-3.329h-1.421a16.531,16.531,0,0,0-2.907-6.325.832.832,0,0,0-1.165-.166.832.832,0,0,0-.329.583l-.757,7.572H209.711l-.757-7.572a.832.832,0,0,0-.911-.745.832.832,0,0,0-.583.329,16.533,16.533,0,0,0-2.907,6.325h-1.421v-.135a19.847,19.847,0,0,1,2.085-8.831,5.374,5.374,0,0,1,3.128-2.713l1.306-.435,4.467,5.956a.832.832,0,0,0,1.165.166.824.824,0,0,0,.166-.166l4.467-5.956,1.306.435a5.374,5.374,0,0,1,3.128,2.713,19.846,19.846,0,0,1,2.085,8.831Z" transform="translate(-201.468 397.917)" fill="#39c6fb"/>
        <path id="Path_176" data-name="Path 176" d="M379.378-104.393H365.8a.832.832,0,0,1-.832-.832v-8.062a.832.832,0,0,1,.832-.832h13.575a.832.832,0,0,1,.832.832v8.062A.832.832,0,0,1,379.378-104.393Zm-12.743-1.664h11.911v-6.4H366.635Z" transform="translate(-347.963 143.641)" fill="#39c6fb"/>
        <path id="Path_177" data-name="Path 177" d="M410.777-145.171c-.582,0-.743-.394-1.037-1.109-.131-.319-.308-.762-.526-1.318-.2-.5-.393-1.007-.534-1.371h-1.372l-1.242,2.957a.832.832,0,0,1-1.09.445.832.832,0,0,1-.445-1.09l1.456-3.467a.832.832,0,0,1,.767-.51h2.5a.832.832,0,0,1,.777.534c.6,1.556,1.28,3.293,1.441,3.635a.828.828,0,0,1,.139.461A.832.832,0,0,1,410.777-145.171Zm0-1.664a.832.832,0,0,1,.323.066A.818.818,0,0,0,410.78-146.836Z" transform="translate(-383.349 176.358)" fill="#39c6fb"/>
      </g>
      <path id="Path_178" data-name="Path 178" d="M-1119.687,83.981l-349.836.4a1.04,1.04,0,0,1-1.04-1.04,1.04,1.04,0,0,1,1.04-1.04l349.836-.4a1.04,1.04,0,0,1,1.04,1.04A1.04,1.04,0,0,1-1119.687,83.981Z" transform="translate(0 -575.497)" fill="#39c6fb"/>
      <g id="Group_221" data-name="Group 221" transform="translate(-1374.715 -560.412)">
        <g id="Group_220" data-name="Group 220" transform="translate(0 0)">
          <g id="Group_219" data-name="Group 219">
            <path id="Path_179" data-name="Path 179" d="M-926.889-498.489h-3.44v-60.776a1.083,1.083,0,0,0-1.147-1.147h-57.336a1.083,1.083,0,0,0-1.147,1.147v60.776h-3.44a1.083,1.083,0,0,0-1.147,1.147v4.587a1.083,1.083,0,0,0,1.147,1.147h66.51a1.083,1.083,0,0,0,1.147-1.147v-4.587A1.083,1.083,0,0,0-926.889-498.489Zm-60.776-59.629h55.042v59.629h-17.2V-511.1a1.083,1.083,0,0,0-1.147-1.147h-18.348a1.083,1.083,0,0,0-1.147,1.147v12.614h-17.2Zm19.494,59.629v-11.467h6.88v11.467ZM-959-509.957h6.88v11.467H-959Zm30.961,16.054h-64.216V-496.2h64.216v2.293Z" transform="translate(994.545 560.412)" fill="#39c6fb"/>
            <path id="Path_180" data-name="Path 180" d="M-873.989-505.294h-9.174a1.083,1.083,0,0,0-1.147,1.147v6.88a1.083,1.083,0,0,0,1.147,1.147h9.174a1.083,1.083,0,0,0,1.147-1.147v-6.88A1.083,1.083,0,0,0-873.989-505.294Zm-1.147,6.88h-6.88V-503h6.88Z" transform="translate(895.776 511.028)" fill="#39c6fb"/>
            <path id="Path_181" data-name="Path 181" d="M-873.989-384.036h-9.174a1.083,1.083,0,0,0-1.147,1.147v6.88a1.083,1.083,0,0,0,1.147,1.147h9.174a1.083,1.083,0,0,0,1.147-1.147v-6.88A1.083,1.083,0,0,0-873.989-384.036Zm-1.147,6.88h-6.88v-4.587h6.88Z" transform="translate(895.776 402.383)" fill="#39c6fb"/>
            <path id="Path_182" data-name="Path 182" d="M-717.811-374.86h9.174a1.083,1.083,0,0,0,1.147-1.147v-6.88a1.083,1.083,0,0,0-1.147-1.147h-9.174a1.083,1.083,0,0,0-1.147,1.147v6.88A1.083,1.083,0,0,0-717.811-374.86Zm1.147-6.88h6.88v4.587h-6.88v-4.587Z" transform="translate(747.626 402.382)" fill="#39c6fb"/>
            <path id="Path_183" data-name="Path 183" d="M-552.458-374.86h9.174a1.083,1.083,0,0,0,1.147-1.147v-6.88a1.083,1.083,0,0,0-1.147-1.147h-9.174a1.083,1.083,0,0,0-1.147,1.147v6.88A1.083,1.083,0,0,0-552.458-374.86Zm1.147-6.88h6.88v4.587h-6.88Z" transform="translate(599.474 402.382)" fill="#39c6fb"/>
            <path id="Path_184" data-name="Path 184" d="M-717.811-253.6h9.174a1.083,1.083,0,0,0,1.147-1.147v-6.88a1.083,1.083,0,0,0-1.147-1.147h-9.174a1.083,1.083,0,0,0-1.147,1.147v6.88A1.083,1.083,0,0,0-717.811-253.6Zm1.147-6.88h6.88v4.587h-6.88v-4.587Z" transform="translate(747.626 293.737)" fill="#39c6fb"/>
            <path id="Path_185" data-name="Path 185" d="M-552.458-253.6h9.174a1.083,1.083,0,0,0,1.147-1.147v-6.88a1.083,1.083,0,0,0-1.147-1.147h-9.174a1.083,1.083,0,0,0-1.147,1.147v6.88A1.083,1.083,0,0,0-552.458-253.6Zm1.147-6.88h6.88v4.587h-6.88Z" transform="translate(599.474 293.737)" fill="#39c6fb"/>
            <path id="Path_186" data-name="Path 186" d="M-873.989-262.777h-9.174a1.083,1.083,0,0,0-1.147,1.147v6.88a1.083,1.083,0,0,0,1.147,1.147h9.174a1.083,1.083,0,0,0,1.147-1.147v-6.88A1.083,1.083,0,0,0-873.989-262.777Zm-1.147,6.88h-6.88v-4.587h6.88Z" transform="translate(895.776 293.738)" fill="#39c6fb"/>
            <path id="Path_187" data-name="Path 187" d="M-717.811-496.119h9.174a1.083,1.083,0,0,0,1.147-1.147v-6.88a1.083,1.083,0,0,0-1.147-1.147h-9.174a1.083,1.083,0,0,0-1.147,1.147v6.88A1.083,1.083,0,0,0-717.811-496.119Zm1.147-6.88h6.88v4.587h-6.88V-503Z" transform="translate(747.626 511.027)" fill="#39c6fb"/>
            <path id="Path_188" data-name="Path 188" d="M-552.458-496.119h9.174a1.083,1.083,0,0,0,1.147-1.147v-6.88a1.083,1.083,0,0,0-1.147-1.147h-9.174a1.083,1.083,0,0,0-1.147,1.147v6.88A1.083,1.083,0,0,0-552.458-496.119Zm1.147-6.88h6.88v4.587h-6.88Z" transform="translate(599.474 511.027)" fill="#39c6fb"/>
            <path id="Path_189" data-name="Path 189" d="M-739.857-139.224H-726.1a1.083,1.083,0,0,0,1.147-1.147,1.083,1.083,0,0,0-1.147-1.147h-13.761A1.083,1.083,0,0,0-741-140.37,1.083,1.083,0,0,0-739.857-139.224Z" transform="translate(767.379 185.092)" fill="#39c6fb"/>
          </g>
        </g>
      </g>
    </g>
  </g>
</svg>
